<svg width="208" height="73" viewBox="0 0 208 73" fill="none" xmlns="http://www.w3.org/2000/svg">
<path d="M66.3804 44.4739L39.0157 35.8838L60.7866 23.0611L58.1616 18.6205L36.6928 31.2612C36.5001 31.2612 35.6355 31.1832 35.4689 29.4829V31.984V0H30.3074V29.3321C30.2866 29.6025 30.0313 31.5628 27.6043 32.296L1.54688 24.1219L0 29.0409L26.4011 37.3294L1.03125 52.2684L3.65626 56.709L28.448 42.108C29.7813 41.7336 30.2813 43.3351 30.3022 43.4183V73H35.4636V43.8083C35.7449 41.042 38.6407 41.3124 39.9064 41.5724L64.8335 49.3981L66.3804 44.4791V44.4739Z" fill="#7DEE2D"/>
<path d="M87.4121 17.9629H101.214C105.329 17.9629 107.933 18.8989 109.912 20.5108C112.308 22.5387 113.662 25.5546 113.662 29.2985C113.662 32.4183 112.725 35.0182 111.058 36.9942C109.027 39.2821 105.954 40.634 101.214 40.634H92.8288V54.3615H87.4121V17.9629ZM106.995 33.6663C107.829 32.5223 108.246 31.0664 108.246 29.2985C108.246 27.1145 107.621 25.4506 106.37 24.2546C105.277 23.1627 103.61 22.5387 101.058 22.5387H92.8288V36.0582H101.058C103.975 36.0582 105.85 35.2262 106.995 33.6663Z" fill="#F9F9F9"/>
<path d="M115.486 46.8208C115.486 44.8449 116.111 43.129 117.361 41.829C119.028 40.2171 121.684 39.3331 126.632 38.5531L131.841 37.7212C132.518 37.6692 132.882 37.3572 132.882 36.7852V36.3172C132.882 34.8613 132.413 33.8733 131.632 33.0933C130.695 32.1574 129.236 31.6374 127.309 31.6374C123.872 31.6374 121.841 33.3533 121.58 36.4212H116.424C116.736 31.0654 120.799 27.6855 127.309 27.6855C130.903 27.6855 133.716 28.7255 135.591 30.4934C137.205 31.9494 137.934 33.9773 137.934 37.4612V50.0967C137.934 52.0726 137.986 52.9566 138.143 54.1005V54.3605H133.403C133.299 53.6845 133.143 52.7486 133.091 51.5006C131.528 53.7365 128.663 55.0365 124.913 55.0365C119.184 55.0365 115.486 51.7086 115.486 46.8208ZM125.851 51.0847C128.091 51.0847 129.913 50.4607 131.111 49.3167C132.205 48.2248 132.882 46.7168 132.882 44.3249V41.049C132.361 41.361 131.736 41.465 131.059 41.621L127.466 42.245C124.028 42.869 122.466 43.3889 121.58 44.2729C120.955 44.9489 120.643 45.8328 120.643 46.8208C120.643 49.5247 122.57 51.0847 125.851 51.0847Z" fill="#F9F9F9"/>
<path d="M143.402 17.9629H148.611V54.3615H143.402V17.9629Z" fill="#F9F9F9"/>
<path d="M173.089 51.4496C171.162 53.7375 168.35 55.0375 164.964 55.0375C157.881 55.0375 153.193 49.5777 153.193 41.362C153.193 33.1463 157.933 27.6865 165.12 27.6865C168.298 27.6865 171.006 28.8825 172.881 31.0144V17.9629H178.089V54.3615H173.089V51.4496ZM173.089 41.362C173.089 35.3822 170.329 31.7424 165.745 31.7424C161.162 31.7424 158.402 35.3822 158.402 41.362C158.402 47.3418 161.162 50.9816 165.745 50.9816C170.329 50.9816 173.089 47.3418 173.089 41.362Z" fill="#F9F9F9"/>
<path d="M181.631 41.361C181.631 33.1453 186.891 27.6855 194.808 27.6855C202.725 27.6855 207.985 33.1453 207.985 41.361C207.985 49.5767 202.777 55.0365 194.808 55.0365C186.839 55.0365 181.631 49.5767 181.631 41.361ZM202.777 41.361C202.777 35.3812 199.756 31.7414 194.808 31.7414C189.86 31.7414 186.839 35.3812 186.839 41.361C186.839 47.3408 189.86 50.9807 194.808 50.9807C199.756 50.9807 202.777 47.3408 202.777 41.361Z" fill="#F9F9F9"/>
</svg>
